<?xml version="1.0" encoding="utf-8"?>
<!-- Generator: Adobe Illustrator 15.1.0, SVG Export Plug-In . SVG Version: 6.00 Build 0)  -->
<!DOCTYPE svg PUBLIC "-//W3C//DTD SVG 1.1//EN" "http://www.w3.org/Graphics/SVG/1.1/DTD/svg11.dtd">
<svg version="1.1" xmlns="http://www.w3.org/2000/svg" xmlns:xlink="http://www.w3.org/1999/xlink" x="0px" y="0px" width="300px"
	 height="300px" viewBox="0 0 300 300" enable-background="new 0 0 300 300" xml:space="preserve">
<g id="Layer_2" display="none">
	<circle display="inline" fill="none" stroke="#6BBD45" stroke-miterlimit="10" cx="817" cy="368" r="216"/>
</g>
<g id="Layer_3" display="none">
</g>
<g id="Layer_1">
	<path fill="#FFFFFF" d="M94.766,14.474c-0.003,10.087,1.06,20.177,3.156,30.044c19.246,5.585,36.351,5.193,56.083,3.356
		c9.453-1.206,18.031,6.296,18.383,15.633c0.004,0.001,0.006,0.002,0.008,0.003c0.495,13.839-15.288,18.367-24.839,24.488
		c-10.835,6.943-19.216,16.037-27.026,26.1c4.101,9.219,9.176,18.002,15.104,26.164c19.854-2.727,35.321-10.041,52.599-19.744
		c8.136-4.941,19.04-1.602,23.153,6.803c0.003,0,0.006,0,0.008,0c6.389,13.072-7.93,24.545-14.151,34.709
		c-6.255,10.219-9.821,21.078-12.653,32.602c7.496,6.75,15.704,12.711,24.44,17.758c17.028-10.566,28.183-23.539,40.021-39.434
		c5.426-7.824,16.752-9.195,23.92-3.201c0.002,0,0.004-0.002,0.008-0.002c10.613,8.891,3.418,23.652,1.574,34.844
		c-2.088,12.699-0.939,25.012,1.314,37.549c7.862,2.557,15.948,4.42,24.131,5.595V98.305
		c-37.029-16.198-62.908-53.151-62.908-96.154c0-0.719,0.013-1.435,0.027-2.151h-90.341c-5.613,0.89-11.669,0.854-16.708,1.621
		C117.349,3.558,105.993,8.457,94.766,14.474z"/>
	<g>
		<path fill="#FFFFFF" d="M230.248,220.827c-16.961-1.236-32.182,0.719-48.333,6.054c-10.948,3.615-25.008,4.538-28.452-9.145
			c-0.003,0-0.006,0-0.008-0.001c-3.364-13.433,11.138-21.146,19.205-29.118c9.152-9.045,15.461-19.682,21.008-31.148
			c-5.927-8.164-12.719-15.7-20.214-22.451c-18.854,6.8-32.459,17.164-47.345,30.25c-6.942,6.533-18.29,5.506-24.061-1.842
			c-0.003,0.001-0.006,0.002-0.009,0.002c-8.968-11.458,2.655-25.657,6.627-36.894c3.993-11.293,5.222-22.659,5.598-34.518
			c-8.736-5.046-18.004-9.171-27.599-12.289c-12.269,11.778-21,24.397-27.844,39.97c-4.635,10.546-13.357,21.631-25.832,15.025
			c-0.003,0.002-0.004,0.003-0.006,0.005c-12.233-6.491-8.262-22.425-8.788-33.757c-0.597-12.855-4.281-24.658-9.09-36.454
			C10.088,63.989,5.044,63.726,0,63.726V187.5c64.18,0,116.984,49.613,122.09,112.5h58.783c-2.226-3.379-3.26-7.545-2.53-11.736
			c-0.003-0.002-0.005-0.003-0.008-0.005c2.393-13.64,18.775-14.786,29.389-18.789c12.041-4.539,22.13-11.69,31.859-19.91
			C237.49,239.69,234.353,230.044,230.248,220.827z"/>
		<path fill="#FFFFFF" d="M0,190.5v14.594c54.565,0,99.394,41.66,104.43,94.906h14.648C113.98,238.769,62.524,190.5,0,190.5z"/>
	</g>
</g>
</svg>
