<?xml version="1.0" encoding="utf-8"?>
<!-- Generator: Adobe Illustrator 15.1.0, SVG Export Plug-In . SVG Version: 6.00 Build 0)  -->
<!DOCTYPE svg PUBLIC "-//W3C//DTD SVG 1.1//EN" "http://www.w3.org/Graphics/SVG/1.1/DTD/svg11.dtd">
<svg version="1.1" id="Layer_1" xmlns="http://www.w3.org/2000/svg" xmlns:xlink="http://www.w3.org/1999/xlink" x="0px" y="0px"
	 width="300px" height="300px" viewBox="0 0 300 300" enable-background="new 0 0 300 300" xml:space="preserve">
<g>
	<path fill="#F0E8F1" d="M274.283,177.501c7.76,0.453,15.084-1.015,22.473-3.159c1.27-5.96,1.907-12.053,1.908-18.146
		c-4.115-2.204-6.711-3.987-14.393-6.205c-6.855-1.979-9.707-1.812-18.32-2.821c-5.736-0.475-9.865-5.986-8.897-11.544
		c-0.002-0.001-0.003-0.002-0.005-0.003c1.445-8.239,11.341-8.931,17.751-11.349c7.272-2.742,13.367-7.061,19.244-12.026
		c-1.265-5.961-3.159-11.788-5.639-17.354c-10.244-0.747-19.438,0.434-29.194,3.656c-6.612,2.184-15.105,2.741-17.185-5.523
		c-0.002,0-0.004,0-0.005,0c-2.032-8.114,6.727-12.772,11.6-17.588c5.528-5.463,9.338-11.888,12.689-18.814
		c-3.58-4.931-7.683-9.483-12.21-13.561c-11.388,4.107-19.605,10.368-28.597,18.271c-4.192,3.946-11.047,3.326-14.532-1.113
		c-0.003,0-0.004,0.001-0.007,0.001c-5.416-6.92,1.604-15.497,4.003-22.284c2.411-6.822,3.154-13.687,3.382-20.85
		c-5.276-3.048-10.875-5.54-16.67-7.422c-7.411,7.114-12.685,14.736-16.818,24.143c-2.8,6.37-8.068,13.066-15.604,9.076
		c-0.002,0.001-0.003,0.002-0.004,0.003c-7.389-3.921-4.99-13.545-5.308-20.39c-0.36-7.765-2.586-14.894-5.491-22.019
		c-6.06-0.637-12.188-0.637-18.248,0c-4.57,11.208-5.415,21.509-5.557,33.477c0.126,5.741-4.922,10.452-10.552,10.057
		c-0.001,0.001-0.001,0.002-0.003,0.004c-8.343-0.577-10.067-10.344-13.141-16.468c-3.488-6.947-8.42-12.555-13.973-17.882
		c-5.795,1.882-11.393,4.375-16.67,7.422C80.639,27.354,82.777,36.375,87,45.741c2.862,6.345,4.307,14.741-3.696,17.668
		c0,0.002,0,0.004-0.001,0.005c-7.856,2.868-13.404-5.355-18.703-9.699c-6.012-4.928-12.799-8.045-20.038-10.653
		c-4.528,4.076-8.629,8.63-12.21,13.56c5.272,10.896,12.361,18.415,21.16,26.53c4.36,3.754,4.464,10.642,0.414,14.571
		c0,0.001,0.001,0.002,0.001,0.004c-6.012,5.814-14.423,0.56-21.031-1.253c-7.496-2.056-14.964-2.145-22.638-1.582
		c-2.48,5.566-4.372,11.394-5.64,17.354c7.848,6.628,15.982,11.075,25.769,14.203c6.633,2.12,13.832,6.662,10.656,14.57
		c0.001,0.001,0.002,0.002,0.003,0.003c-3.126,7.757-12.948,6.378-19.722,7.409c-7.684,1.17-14.543,4.129-21.324,7.764
		c-0.001,6.093,0.64,12.188,1.907,18.146c11.625,3.374,21.957,3.138,33.875,2.027c5.71-0.729,10.892,3.803,11.104,9.442
		c0.002,0.001,0.003,0.001,0.004,0.002c0.299,8.358-9.234,11.094-15.003,14.791c-6.544,4.194-11.606,9.687-16.324,15.765
		c2.477,5.567,5.542,10.872,9.123,15.803c11.992-1.646,21.334-6.064,31.771-11.925c4.915-2.985,11.501-0.968,13.985,4.109
		c0.001,0,0.003,0,0.004,0c3.859,7.895-4.79,14.824-8.547,20.964c-3.778,6.172-5.932,12.73-7.642,19.691
		c4.527,4.078,9.485,7.678,14.762,10.726c10.285-6.382,17.022-14.218,24.173-23.817c3.276-4.726,10.119-5.554,14.448-1.934
		c0.001,0,0.003-0.001,0.004-0.002c6.412,5.37,2.064,14.286,0.952,21.047c-1.261,7.67-0.567,15.107,0.793,22.68
		c5.795,1.884,11.789,3.156,17.849,3.794c5.771-8.498,9.343-17.052,11.432-27.112c1.412-6.808,5.118-14.477,13.375-12.12
		c0.001-0.001,0.002-0.002,0.004-0.004c8.041,2.297,7.697,12.212,9.43,18.839c1.968,7.521,5.626,14.032,9.949,20.396
		c6.061-0.636,12.053-1.912,17.85-3.793c1.813-10.111,1.6-19.378-0.586-29.417c-1.479-6.803-1.152-15.312,7.29-16.515
		c0.001-0.001,0.001-0.003,0.002-0.005c8.281-1.172,11.998,8.025,16.277,13.375c4.856,6.07,10.847,10.529,17.385,14.586
		c5.278-3.044,10.234-6.647,14.764-10.724c-2.892-11.754-8.262-20.583-15.183-30.351c-3.48-4.576-2.161-11.336,2.626-14.338
		c0-0.003,0-0.004,0-0.005c7.448-4.664,15.245,3.215,21.743,6.31c6.532,3.112,13.281,4.566,20.381,5.542
		c3.585-4.929,6.646-10.236,9.126-15.802c-7.426-9.561-15.919-15.442-26.215-21.551c-5.046-2.767-6.578-9.48-3.433-14.166
		c-0.001-0.002-0.002-0.003-0.004-0.005C258.123,173.71,267.444,177.103,274.283,177.501z M149.332,228.422
		c-43.929,0-79.668-35.739-79.668-79.668s35.739-79.668,79.668-79.668c43.929,0,79.668,35.739,79.668,79.668
		S193.261,228.422,149.332,228.422z"/>
	<path fill="#F0E8F1" d="M149.332,73.085c-41.724,0-75.668,33.944-75.668,75.668c0,41.724,33.944,75.668,75.668,75.668
		S225,190.478,225,148.753C225,107.03,191.056,73.085,149.332,73.085z M149.332,212.119c-34.996,0-63.365-28.37-63.365-63.366
		c0-34.995,28.37-63.364,63.365-63.364c34.996,0,63.365,28.37,63.365,63.364C212.697,183.749,184.328,212.119,149.332,212.119z"/>
</g>
</svg>
