<?xml version="1.0" encoding="utf-8"?>
<!-- Generator: Adobe Illustrator 15.1.0, SVG Export Plug-In . SVG Version: 6.00 Build 0)  -->
<!DOCTYPE svg PUBLIC "-//W3C//DTD SVG 1.1//EN" "http://www.w3.org/Graphics/SVG/1.1/DTD/svg11.dtd">
<svg version="1.1" id="Layer_1" xmlns="http://www.w3.org/2000/svg" xmlns:xlink="http://www.w3.org/1999/xlink" x="0px" y="0px"
	 width="800px" height="120px" viewBox="0 0 800 120" enable-background="new 0 0 800 120" xml:space="preserve">
<g>
	<path fill="#FFFFFF" d="M36.268,0.944c7.886,0,14.562,0.858,20.029,2.567c5.464,1.713,9.888,4.011,13.268,6.9
		c3.38,2.888,5.831,6.205,7.353,9.948c1.521,3.746,2.282,7.596,2.282,11.553c0,13.372-6.254,22.73-18.761,28.079l36.171,48.938
		L78.017,120L39.311,65.768H24.099v49.099H1.281V0.944H36.268z M24.099,47.477h10.648c7.099,0,12.365-1.257,15.803-3.771
		c3.436-2.512,5.155-6.018,5.155-10.51c0-4.064-1.69-7.381-5.07-9.947c-3.38-2.568-8.79-3.851-16.226-3.851H24.099V47.477z"/>
	<path fill="#FFFFFF" d="M123.313,80.048c-0.113,2.567,0.365,4.922,1.437,7.06c1.07,2.142,2.591,4.012,4.564,5.616
		c1.97,1.604,4.31,2.835,7.015,3.69c2.704,0.857,5.633,1.283,8.789,1.283c4.167,0,8-0.803,11.494-2.406
		c3.492-1.604,7.099-3.956,10.818-7.061l9.634,16.046c-4.622,3.53-9.777,6.445-15.465,8.744c-5.691,2.3-11.747,3.45-18.17,3.45
		c-6.537,0-12.481-1.043-17.832-3.129c-5.354-2.086-9.917-4.975-13.691-8.665c-3.777-3.689-6.706-8.074-8.789-13.156
		c-2.086-5.08-3.127-10.67-3.127-16.768c0-5.882,0.985-11.312,2.958-16.286c1.97-4.975,4.733-9.227,8.282-12.756
		c3.549-3.53,7.86-6.283,12.931-8.264c5.07-1.979,10.648-2.968,16.733-2.968c4.395,0,8.815,0.829,13.268,2.487
		c4.45,1.658,8.478,4.332,12.085,8.022c3.605,3.689,6.534,8.423,8.79,14.199c2.252,5.776,3.38,12.731,3.38,20.859H123.313z
		 M153.399,63.521c-0.79-2.888-2.34-5.455-4.648-7.701c-2.311-2.247-5.324-3.37-9.042-3.37c-3.719,0-6.875,1.043-9.465,3.129
		c-2.593,2.086-4.453,4.734-5.578,7.942H153.399z"/>
	<path fill="#FFFFFF" d="M245.853,59.67c-3.832-2.672-7.58-4.438-11.24-5.295c-3.663-0.855-7.297-1.283-10.902-1.283
		c-2.932,0-5.607,0.59-8.029,1.765c-2.424,1.179-3.634,2.622-3.634,4.332c0,1.604,1.125,2.836,3.38,3.69
		c2.253,0.858,5.097,1.632,8.536,2.327c3.436,0.696,7.154,1.472,11.155,2.326c3.999,0.857,7.717,2.166,11.155,3.932
		c3.436,1.765,6.281,4.119,8.536,7.06c2.253,2.943,3.38,6.819,3.38,11.633c0,4.388-1.014,8.211-3.042,11.473
		c-2.028,3.265-4.706,6.017-8.028,8.264c-3.325,2.246-7.157,3.931-11.494,5.054c-4.339,1.124-8.874,1.685-13.606,1.685
		c-11.269,0-22.538-3.209-33.804-9.627l8.282-16.366c5.409,2.462,10.142,4.307,14.198,5.536c4.056,1.23,8.168,1.845,12.338,1.845
		c3.267,0,6.196-0.694,8.79-2.086c2.59-1.389,3.887-3.37,3.887-5.937c0-1.389-1.127-2.487-3.38-3.29
		c-2.255-0.802-5.1-1.549-8.536-2.246c-3.438-0.694-7.157-1.497-11.156-2.407c-4-0.907-7.719-2.246-11.155-4.011
		c-3.438-1.765-6.283-4.092-8.536-6.98c-2.255-2.888-3.38-6.683-3.38-11.392c0-3.314,0.93-6.498,2.789-9.547
		c1.86-3.049,4.395-5.721,7.606-8.022c3.211-2.3,6.93-4.116,11.155-5.456c4.226-1.336,8.646-2.005,13.268-2.005
		c5.071,0,10.366,0.669,15.888,2.005c5.52,1.34,10.59,3.559,15.212,6.66L245.853,59.67z"/>
	<path fill="#FFFFFF" d="M353.688,92.082c-2.255,5.029-5.324,9.361-9.212,12.997c-3.887,3.638-8.535,6.497-13.944,8.584
		c-5.408,2.086-11.213,3.128-17.409,3.128c-6.198,0-11.945-1.042-17.24-3.128c-5.297-2.087-9.917-4.946-13.86-8.584
		c-3.945-3.636-7.043-7.968-9.296-12.997c-2.255-5.026-3.381-10.43-3.381-16.206c0-5.882,1.125-11.312,3.381-16.286
		c2.253-4.975,5.351-9.307,9.296-12.996c3.943-3.691,8.562-6.58,13.86-8.666c5.295-2.084,11.042-3.128,17.24-3.128
		c6.196,0,12.001,1.044,17.409,3.128c5.409,2.086,10.057,4.975,13.944,8.666c3.888,3.689,6.957,8.021,9.212,12.996
		c2.253,4.975,3.38,10.404,3.38,16.286C357.068,81.652,355.941,87.056,353.688,92.082z M332.645,66.971
		c-1.072-2.728-2.564-5.079-4.479-7.061c-1.917-1.978-4.141-3.555-6.676-4.732c-2.535-1.176-5.324-1.766-8.367-1.766
		c-2.932,0-5.691,0.562-8.282,1.686c-2.593,1.123-4.846,2.703-6.761,4.733c-1.917,2.033-3.409,4.412-4.479,7.14
		c-1.072,2.728-1.605,5.695-1.605,8.905c0,3.209,0.533,6.177,1.605,8.904c1.07,2.729,2.562,5.055,4.479,6.98
		c1.915,1.926,4.168,3.45,6.761,4.573c2.59,1.123,5.35,1.685,8.282,1.685c3.042,0,5.832-0.562,8.367-1.685s4.759-2.647,6.676-4.573
		c1.915-1.926,3.407-4.252,4.479-6.98c1.07-2.728,1.606-5.695,1.606-8.904C334.25,72.666,333.714,69.698,332.645,66.971z"/>
	<path fill="#FFFFFF" d="M387.491,38.33c3.38-1.176,7.099-2.139,11.156-2.889c4.057-0.746,8.393-1.123,13.016-1.123
		c10.365,0,18.676,2.756,24.93,8.264c6.254,5.51,9.381,13.934,9.381,25.271v47.013H424V70.581c0-5.776-1.242-10.161-3.719-13.157
		c-2.48-2.994-5.748-4.492-9.803-4.492c-6.875,0-12.229,0.91-16.058,2.727v59.208h-21.973V30.949l15.043,7.701V38.33z"/>
	<path fill="#FFFFFF" d="M509.861,113.582c-1.014,0.214-2.424,0.454-4.225,0.723c-1.803,0.266-3.748,0.506-5.832,0.722
		c-2.086,0.213-4.197,0.374-6.338,0.481c-2.141,0.105-4.113,0.16-5.916,0.16c-3.717,0-7.184-0.749-10.395-2.246
		c-3.211-1.496-6.029-3.475-8.451-5.937c-2.424-2.46-4.34-5.188-5.746-8.184c-1.41-2.993-2.113-6.042-2.113-9.146
		c0-6.097,1.352-11.017,4.057-14.762c2.705-3.743,6.141-6.658,10.311-8.744c4.168-2.086,8.814-3.45,13.945-4.092
		c5.125-0.642,10.111-0.963,14.957-0.963v-3.369c0-1.926-0.76-3.531-2.281-4.814s-3.578-1.926-6.17-1.926
		c-3.719,0-7.748,0.617-12.084,1.846c-4.34,1.231-8.48,3.236-12.424,6.018l-8.959-16.848c6.311-3.636,12.535-6.018,18.678-7.141
		c6.141-1.123,11.916-1.685,17.324-1.685c2.816,0,5.832,0.349,9.043,1.042c3.213,0.698,6.225,1.926,9.043,3.691
		c2.816,1.766,5.154,4.172,7.014,7.221c1.859,3.048,2.789,6.926,2.789,11.633v61.453L509.861,113.582z M504.115,78.925
		c-2.594,0-5.129,0.136-7.605,0.4c-2.48,0.269-4.705,0.803-6.676,1.604c-1.975,0.803-3.549,1.954-4.732,3.45
		c-1.184,1.5-1.775,3.425-1.775,5.776c0,2.142,0.646,3.986,1.943,5.536c1.295,1.552,2.9,2.326,4.818,2.326
		c1.123,0,2.393-0.053,3.803-0.161c1.406-0.104,2.76-0.24,4.055-0.4s2.508-0.346,3.635-0.562c1.125-0.213,1.971-0.426,2.535-0.642
		V78.925z"/>
	<path fill="#FFFFFF" d="M561.412,38.33c3.381-1.176,7.1-2.139,11.156-2.889c4.057-0.746,8.393-1.123,13.016-1.123
		c10.365,0,18.676,2.756,24.93,8.264c6.254,5.51,9.381,13.934,9.381,25.271v47.013h-21.973V70.581
		c0-5.776-1.242-10.161-3.719-13.157c-2.48-2.994-5.746-4.492-9.803-4.492c-6.875,0-12.229,0.91-16.057,2.727v59.208h-21.975V30.949
		l15.043,7.701V38.33z"/>
	<path fill="#FFFFFF" d="M702.377,59.67c-3.27-1.283-6.084-2.299-8.451-3.049c-2.365-0.746-4.479-1.363-6.338-1.845
		s-3.494-0.803-4.902-0.963c-1.41-0.16-2.789-0.241-4.141-0.241c-6.422,0-11.607,2.062-15.549,6.178
		c-3.947,4.119-5.916,9.547-5.916,16.287c0,6.738,1.998,12.033,6,15.884c3.998,3.851,9.436,5.776,16.311,5.776
		c2.928,0,6.17-0.426,9.719-1.283c3.549-0.855,8.422-2.407,14.621-4.653l8.787,16.848c-2.93,1.284-5.943,2.407-9.041,3.37
		c-3.102,0.962-6.143,1.79-9.127,2.486c-2.988,0.695-5.807,1.203-8.453,1.524c-2.648,0.321-4.984,0.481-7.014,0.481
		c-6.535,0-12.535-0.99-18-2.969c-5.467-1.978-10.141-4.732-14.029-8.263s-6.93-7.755-9.127-12.677
		c-2.197-4.918-3.297-10.32-3.297-16.205c0-6.202,1.1-11.874,3.297-17.008c2.197-5.135,5.238-9.548,9.127-13.237
		c3.889-3.69,8.535-6.552,13.945-8.585c5.408-2.031,11.266-3.048,17.578-3.048c3.941,0,8.873,0.776,14.789,2.325
		c5.916,1.553,11.803,3.559,17.662,6.018L702.377,59.67z"/>
	<path fill="#FFFFFF" d="M743.617,80.048c-0.113,2.567,0.365,4.922,1.438,7.06c1.07,2.142,2.59,4.012,4.564,5.616
		c1.969,1.604,4.309,2.835,7.014,3.69c2.705,0.857,5.633,1.283,8.789,1.283c4.168,0,8-0.803,11.494-2.406
		c3.492-1.604,7.098-3.956,10.816-7.061l9.635,16.046c-4.621,3.53-9.777,6.445-15.465,8.744c-5.691,2.3-11.748,3.45-18.17,3.45
		c-6.537,0-12.482-1.043-17.832-3.129c-5.354-2.086-9.918-4.975-13.691-8.665c-3.775-3.689-6.705-8.074-8.789-13.156
		c-2.086-5.08-3.127-10.67-3.127-16.768c0-5.882,0.984-11.312,2.957-16.286c1.971-4.975,4.732-9.227,8.283-12.756
		c3.549-3.53,7.859-6.283,12.93-8.264c5.07-1.979,10.648-2.968,16.734-2.968c4.395,0,8.814,0.829,13.268,2.487
		c4.449,1.658,8.477,4.332,12.084,8.022c3.605,3.689,6.535,8.423,8.789,14.199s3.381,12.731,3.381,20.859H743.617z M773.705,63.521
		c-0.791-2.888-2.342-5.455-4.648-7.701c-2.311-2.247-5.324-3.37-9.043-3.37s-6.875,1.043-9.467,3.129s-4.451,4.734-5.576,7.942
		H773.705z"/>
</g>
</svg>
